<?xml version="1.0" encoding="UTF-8" standalone="no" ?>
<!DOCTYPE svg PUBLIC "-//W3C//DTD SVG 1.1//EN" "http://www.w3.org/Graphics/SVG/1.1/DTD/svg11.dtd">
<svg xmlns="http://www.w3.org/2000/svg" xmlns:xlink="http://www.w3.org/1999/xlink" version="1.1" width="1280" height="1024" viewBox="0 0 1280 1024" xml:space="preserve">
<desc>Created with Fabric.js 5.3.0</desc>
<defs>
</defs>
<g transform="matrix(1 0 0 1 640 512)" id="background-logo"  >
<rect style="stroke: none; stroke-width: 0; stroke-dasharray: none; stroke-linecap: butt; stroke-dashoffset: 0; stroke-linejoin: miter; stroke-miterlimit: 4; fill: rgb(255,255,255); fill-opacity: 0; fill-rule: nonzero; opacity: 1;"  paint-order="stroke"  x="-640" y="-512" rx="0" ry="0" width="1280" height="1024" />
</g>
<g transform="matrix(1.9211538461538462 0 0 1.9211538461538462 643.8423076923077 407.56686393643514)" id="logo-logo"  >
<g style=""  paint-order="stroke"   >
		<g transform="matrix(1.444184927174096 0 0 1.4441849271740959 -13.259661730804055 -1.6936090243309536)"  >
<path style="stroke: none; stroke-width: 1; stroke-dasharray: none; stroke-linecap: butt; stroke-dashoffset: 0; stroke-linejoin: miter; stroke-miterlimit: 4; fill: rgb(15,43,76); fill-rule: nonzero; opacity: 1;"  paint-order="stroke"  transform=" translate(-178.3185846, -148.82729075)" d="M 251.4206604 163.9365959 L 186.94511699999998 163.9365959 L 186.94511699999998 113.46409719999998 C 186.94511699999998 113.46409719999998 187.2194319 107.15503789999998 191.88265069999997 104.68626499999998 L 149.63935439999997 108.52656349999998 C 149.63935439999997 108.52656349999998 144.70183289999997 111.54394179999998 145.52475319999996 117.85301329999999 L 130.71217659999996 119.77315649999998 C 130.71217659999996 119.77315649999998 127.47447419999996 121.75175019999999 125.07743309999996 125.70893749999999 C 124.24911119999996 127.0763837 125.23963099999996 128.8252914 126.83838869999997 128.8252914 L 156.77134609999996 128.8252914 L 153.20535019999997 140.346187 L 121.66004159999997 140.346187 C 121.66004159999997 140.346187 112.88220939999997 143.637868 111.23636889999997 146.3809436 C 110.16532489999997 148.16601699999998 109.55925579999997 149.834216 109.26634139999997 150.7822022 C 107.32884769999997 151.3121346 104.73164149999997 152.2570596 103.17304349999998 153.7693242 L 122.35467559999998 153.7693242 C 124.21771009999998 153.7693242 126.01751369999998 154.4775374 127.35835439999998 155.7710039 C 127.37003569999999 155.7822567 127.38169249999999 155.79354610000001 127.39332489999998 155.8048601 L 101.87602609999999 155.8048601 C 100.36946749999998 159.8968211 100.81270839999999 168.3255119 100.81270839999999 168.3255119 L 98.34393539999999 168.3255119 L 96.9724098 171.3428902 L 136.74693309999998 171.3428902 L 141.4101519 170.51997 L 141.68445459999998 172.4401132 L 137.02123579999997 173.5373484 L 97.79533009999997 173.5373484 C 97.79533009999997 173.5373484 97.52101519999998 176.55471450000002 98.61825029999997 177.65194960000002 C 99.71547319999998 178.74917250000001 104.65300689999997 178.20056720000002 104.65300689999997 178.20056720000002 L 107.22902999999997 178.28874030000003 C 107.22798919999997 178.36704430000003 107.22468319999997 178.44457680000002 107.22468319999997 178.52323590000003 C 107.22468319999997 185.59631910000004 111.35615739999997 191.32897790000004 116.45164599999997 191.32897790000004 L 124.22067329999997 191.32897790000004 C 129.15606419999997 191.32897790000004 133.18701059999998 185.95084810000003 133.43542819999996 179.18575240000004 L 136.81451079999997 179.30141450000005 C 136.93897679999998 186.87890010000004 141.40072349999997 192.96831650000004 146.88950739999996 192.96831650000004 L 155.37610279999996 192.96804710000004 C 160.32484029999995 192.96804710000004 164.43775169999995 188.01810970000002 165.29161399999995 181.49224820000003 L 181.18265479999997 181.49224820000003 C 182.14789359999997 187.13271770000003 185.79878099999996 191.32897790000004 190.15762449999997 191.32897790000004 L 197.92663959999996 191.32897790000004 C 202.28547079999996 191.32897790000004 205.93635829999997 187.13271770000003 206.90160929999996 181.49224820000003 L 214.43895729999997 181.49224820000003 C 215.29294199999998 188.01879540000004 219.40608609999998 192.96831650000004 224.35428479999996 192.96831650000004 L 232.84088019999996 192.96804710000004 C 237.43648449999995 192.96804710000004 241.31109229999996 188.69896850000003 242.52485899999996 182.86378600000003 L 245.37252769999998 182.86378600000003 C 245.37252769999998 182.86378600000003 246.19544789999998 177.10333210000005 245.37252769999998 174.63457130000003 L 259.6647594 174.63457130000003 L 259.6647594 165.30813370000004 L 259.46771989999996 165.24245390000004 C 256.8729754 164.37753910000004 254.15576119999997 163.93659590000004 251.42066039999997 163.93659590000004 Z M 113.5607296 150.2212422 C 113.9231196 149.275607 114.5646857 148.0842234 115.6252851 147.4781666 C 117.5454283 146.38094370000002 125.2260376 143.0892627 125.2260376 143.0892627 L 148.8164342 143.0892627 C 148.8164342 143.0892627 152.3824301 143.0892627 152.9310477 145.2837208 C 152.9310477 145.2837208 136.7469333 146.6552464 132.08371449999999 147.7524815 C 127.42048349999999 148.84970439999998 124.67742009999998 150.22124219999998 124.67742009999998 150.22124219999998 L 113.56072969999998 150.22124219999998 Z M 105.6693179 166.2789315 C 104.1695795 166.2789315 102.953817 164.5855331 102.953817 162.4966232 C 102.953817 160.40771329999998 104.1695795 158.7143271 105.6693179 158.7143271 C 107.169044 158.7143271 108.38481879999999 160.4077132 108.38481879999999 162.4966232 C 108.38481879999999 164.5855332 107.16904399999999 166.2789315 105.6693179 166.2789315 Z M 128.2661663 167.7648335 C 126.1772564 167.7648335 124.48385800000001 165.40617590000002 124.48385800000001 162.49662320000002 C 124.48385800000001 159.5870705 126.17725640000002 157.22841290000002 128.2661663 157.22841290000002 C 130.35507619999998 157.22841290000002 132.04847460000002 159.5870705 132.04847460000002 162.49662320000002 C 132.04847460000002 165.40617590000002 130.3550762 167.7648335 128.2661663 167.7648335 Z M 145.8199451 168.4125463 C 144.26822860000001 169.5763306 141.7466938 168.0246141 141.7466938 168.0246141 C 143.2984103 162.9815323 147.7595816 159.4901792 150.6690486 158.71432710000002 C 153.5785156 157.93846270000003 159.5914156 159.29621310000002 159.5914156 159.29621310000002 C 159.5914156 159.29621310000002 155.7121304 159.49017920000003 151.8328329 161.81774790000003 C 148.0327945 164.09777100000002 147.3716616 167.24874970000002 145.8199451 168.41254630000003 Z M 155.3761029 188.542838 C 151.5695871 188.542838 148.4837984 184.26052299999998 148.4837984 178.9780233 C 148.4837984 173.6955236 151.5695871 169.4132086 155.3761029 169.4132086 C 159.18260650000002 169.4132086 162.26839510000002 173.6955236 162.26839510000002 178.9780233 C 162.26839510000002 184.26052299999998 159.18260640000003 188.542838 155.37610290000003 188.542838 Z M 169.6775548 176.7530151 L 168.5137705 176.7530151 C 169.0956688 169.5763307 165.2163836 158.7143271 156.2940165 155.998814 C 147.3716617 153.28331310000002 134.1820772 157.5505305 134.1820772 157.5505305 C 134.1820772 157.5505305 133.66550360000002 156.5426684 131.6605424 155.41692790000002 C 130.1012587 154.5414173 127.27593639999999 153.56087280000003 127.27593639999999 153.56087280000003 L 145.4506859 151.43101700000003 C 145.4506859 151.43101700000003 159.2034835 150.37385830000002 164.6344852 158.90828090000002 C 170.065487 167.44271580000003 169.6775548 176.75301500000003 169.6775548 176.75301500000003 Z M 175.1790975 167.5753367 L 172.6836436 168.7270846 L 172.6836436 143.5805757 L 175.1790975 143.5805757 L 175.1790975 167.5753367 Z M 175.7549715 140.5092478 L 157.1350342 140.1253318 C 157.1350342 140.1253318 159.2465721 130.1435041 161.35811 129.1837141 C 162.9518499 128.4592891 170.4508111 128.5003451 174.0328229 128.5640536 C 175.0912183 128.5828735 175.93325230000002 129.4554822 175.91618340000002 130.5138898 L 175.7549715 140.5092478 Z M 160.39832 125.7284704 L 130.2608911 125.3445544 C 130.2608911 125.3445544 131.988513 123.4249623 133.71613490000001 122.6571303 C 135.44375680000002 121.88929830000001 148.6888704 120.5455924 148.6888704 120.5455924 C 148.6888704 120.5455924 164.0455219 121.1214664 167.88468170000002 121.69734030000001 C 171.7238537 122.2732143 176.1388875 125.72847030000001 176.1388875 125.72847030000001 C 176.1388875 125.72847030000001 162.7018159 125.34455430000001 160.3983201 125.72847030000001 Z M 183.4332911 114.2109787 L 148.88082839999998 115.1707687 C 148.88082839999998 115.1707687 149.07278639999998 112.4833568 151.56824029999999 111.33160889999999 L 185.16092529999997 108.64418479999999 C 185.16092529999997 108.64418479999999 183.0493752 111.71552489999999 183.43329109999996 114.21097879999999 Z M 232.8408802 188.542838 C 229.0343644 188.542838 225.9485757 184.26052299999998 225.9485757 178.9780233 C 225.9485757 173.6955236 229.0343644 169.4132086 232.8408802 169.4132086 C 236.6473838 169.4132086 239.7331724 173.6955236 239.7331724 178.9780233 C 239.7331724 184.26052299999998 236.6473837 188.542838 232.84088020000002 188.542838 Z M 160.1081117 178.9780233 C 160.1081117 182.60481339999998 157.9895209 185.5449041 155.376103 185.5449041 C 152.7626728 185.5449041 150.644082 182.6048135 150.644082 178.9780233 C 150.644082 175.35123309999997 152.7626728 172.41114249999998 155.376103 172.41114249999998 C 157.989521 172.41114249999998 160.1081117 175.35123309999997 160.1081117 178.9780233 Z M 237.5728767 178.9780233 C 237.5728767 182.60481339999998 235.4542859 185.5449041 232.840868 185.5449041 C 230.2274501 185.5449041 228.108847 182.6048135 228.108847 178.9780233 C 228.108847 175.35123309999997 230.22745 172.41114249999998 232.840868 172.41114249999998 C 235.454286 172.41114249999998 237.5728767 175.35123309999997 237.5728767 178.9780233 Z" stroke-linecap="round" />
</g>
		<g transform="matrix(1.444184927174096 0 0 1.4441849271740959 -18.271933051897122 61.29115248999787)"  >
<path style="stroke: none; stroke-width: 1; stroke-dasharray: none; stroke-linecap: butt; stroke-dashoffset: 0; stroke-linejoin: miter; stroke-miterlimit: 4; fill: rgb(15,43,76); fill-rule: nonzero; opacity: 1;"  paint-order="stroke"  transform=" translate(-174.84792705, -192.43996134999998)" d="M 265.2645469 195.5100819 L 79.3826858 195.5100819 L 84.4313072 189.3698408 L 270.31316830000003 189.3698408 L 265.2645469 195.5100819 Z" stroke-linecap="round" />
</g>
		<g transform="matrix(1.444184927174096 0 0 1.4441849271740959 82.12902034058175 -26.108652002928665)"  >
<path style="stroke: none; stroke-width: 1; stroke-dasharray: none; stroke-linecap: butt; stroke-dashoffset: 0; stroke-linejoin: miter; stroke-miterlimit: 4; fill: rgb(244,71,31); fill-rule: nonzero; opacity: 1;"  paint-order="stroke"  transform=" translate(-244.36876991666668, -131.9215313010548)" d="M 291.3289745 120.7555508 L 295.6173142 111.8065381 L 259.8822492 111.8065381 L 263.388214 104.4902147 L 203.12563600000001 104.4902147 C 203.12563600000001 104.4902147 199.67985940000003 104.387103 196.49585080000003 108.0259818 C 196.49585080000003 108.0259818 193.74851910000004 109.8239833 193.53017470000003 114.15586569999999 C 192.60778930000004 119.3827601 193.53017470000003 159.35314449999998 193.53017470000003 159.35314449999998 L 241.44068450000003 159.35314449999998 L 244.87375670000003 152.1889287 L 267.30961410000003 152.1889287 L 271.5979538 143.239916 L 248.07262470000003 143.239916 L 251.23106970000003 136.64882749999998 L 279.90955520000006 136.64882749999998 L 284.19789490000005 127.69981479999998 L 253.90752100000006 127.69981479999998 L 257.23519540000007 120.75555079999998 L 291.3289745000001 120.75555079999998 Z M 200.1295741 127.9197666 L 253.0633267 127.9197666 L 249.9389229 134.8640306 L 200.12957409999999 134.8640306 L 200.12957409999999 127.9197666 Z M 200.1295741 116.9550628 C 200.28718260000002 115.61533689999999 200.69160430000002 114.45000789999999 201.2458119 113.4392274 L 258.4318271 113.4392274 L 255.94304860000003 118.9707538 L 200.1295741 118.9707538 L 200.1295741 116.9550628 Z M 200.1295741 150.4041318 L 200.1295741 143.81304329999998 L 246.54710730000002 143.81304329999998 L 243.58160980000002 150.4041318 L 200.1295741 150.4041318 Z" stroke-linecap="round" />
</g>
</g>
</g>
<g transform="matrix(1.9211538461538462 0 0 1.9211538461538462 640.2833701923076 609.8922350053454)" id="text-logo"  >
<g style=""  paint-order="stroke"   >
		<g transform="matrix(1 0 0 1 5.684342e-14 0)" id="text-logo-path-0"  >
<path style="stroke: none; stroke-width: 0; stroke-dasharray: none; stroke-linecap: butt; stroke-dashoffset: 0; stroke-linejoin: miter; stroke-miterlimit: 4; fill: rgb(12,44,76); fill-rule: nonzero; opacity: 1;"  paint-order="stroke"  transform=" translate(-288.07000000000005, 19.41)" d="M 14.04 0.71 L 14.04 0.71 C 11.51 0.71 9.09 0.12 6.73 -1 C 4.31 -2.12 2.18 -3.95 0.3 -6.49 L 0.3 -6.49 L 6.08 -11.03 C 7.08 -9.56 8.38 -8.44 9.91 -7.55 C 11.39 -6.67 12.98 -6.2 14.63 -6.2 L 14.63 -6.2 C 16.28 -6.2 17.64 -6.61 18.64 -7.38 C 19.65 -8.14 20.18 -9.26 20.18 -10.62 L 20.18 -10.62 C 20.18 -11.62 19.77 -12.45 19 -13.16 C 18.17 -13.81 17.05 -14.51 15.69 -15.4 L 15.69 -15.4 L 12.04 -17.64 C 10.33 -18.76 8.91 -20.06 7.91 -21.54 C 6.84 -23.01 6.31 -24.9 6.31 -27.26 L 6.31 -27.26 C 6.31 -29.44 6.9 -31.45 8.14 -33.28 C 9.32 -35.05 10.92 -36.46 12.98 -37.58 C 15.05 -38.65 17.29 -39.18 19.82 -39.18 L 19.82 -39.18 C 22.13 -39.18 24.25 -38.65 26.31 -37.58 C 28.32 -36.52 30.03 -35.11 31.51 -33.34 L 31.51 -33.34 L 26.37 -28.56 C 25.37 -29.56 24.37 -30.44 23.25 -31.15 C 22.13 -31.8 20.89 -32.16 19.47 -32.16 L 19.47 -32.16 C 17.88 -32.16 16.7 -31.74 15.87 -30.98 C 14.99 -30.15 14.57 -29.15 14.57 -28.03 L 14.57 -28.03 C 14.57 -27.02 14.99 -26.26 15.87 -25.61 C 16.76 -24.96 17.94 -24.19 19.41 -23.25 L 19.41 -23.25 L 23.19 -20.95 C 25.02 -19.82 26.37 -18.59 27.26 -17.23 C 28.14 -15.81 28.56 -13.98 28.56 -11.8 L 28.56 -11.8 C 28.56 -9.5 27.97 -7.38 26.79 -5.49 C 25.55 -3.54 23.9 -2.06 21.71 -0.94 C 19.53 0.18 16.99 0.71 14.04 0.71 Z M 43.95 0 L 35.81 0 L 43.54 -38.47 L 55.7 -38.47 C 58.23 -38.47 60.48 -38.11 62.42 -37.47 C 64.37 -36.82 65.96 -35.7 67.14 -34.22 C 68.26 -32.75 68.85 -30.74 68.85 -28.26 L 68.85 -28.26 C 68.85 -24.66 68.03 -21.77 66.43 -19.65 C 64.84 -17.46 62.66 -15.87 60 -14.87 C 57.35 -13.87 54.34 -13.33 51.09 -13.33 L 51.09 -13.33 L 46.55 -13.33 L 43.95 0 Z M 50.27 -32.04 L 47.91 -19.77 L 51.98 -19.77 C 54.87 -19.77 57.05 -20.41 58.59 -21.65 C 60.12 -22.89 60.89 -24.66 60.89 -27.08 L 60.89 -27.08 C 60.89 -28.79 60.36 -30.09 59.24 -30.86 C 58.12 -31.62 56.46 -32.04 54.4 -32.04 L 54.4 -32.04 L 50.27 -32.04 Z M 86.55 -20.83 L 86.55 -20.83 L 84.19 -15.75 L 92.45 -15.75 L 92.22 -20.83 C 92.16 -22.71 92.04 -24.6 91.98 -26.43 C 91.92 -28.26 91.8 -30.21 91.75 -32.27 L 91.75 -32.27 L 91.51 -32.27 C 90.68 -30.33 89.86 -28.38 89.09 -26.55 C 88.32 -24.66 87.44 -22.77 86.55 -20.83 Z M 76.76 0 L 67.85 0 L 88.15 -38.47 L 97.82 -38.47 L 101.66 0 L 93.22 0 L 92.75 -9.68 L 81.3 -9.68 L 76.76 0 Z M 116.58 0 L 108.44 0 L 116.17 -38.47 L 128.21 -38.47 C 130.74 -38.47 132.99 -38.17 134.99 -37.52 C 136.94 -36.88 138.53 -35.81 139.65 -34.4 C 140.77 -32.92 141.36 -31.03 141.36 -28.62 L 141.36 -28.62 C 141.36 -25.02 140.42 -22.13 138.59 -19.94 C 136.76 -17.76 134.4 -16.17 131.57 -15.22 L 131.57 -15.22 L 137.53 0 L 129.03 0 L 124.08 -14.1 L 119.36 -14.1 L 116.58 0 Z M 122.9 -32.04 L 120.66 -20.53 L 124.73 -20.53 C 127.62 -20.53 129.74 -21.18 131.22 -22.42 C 132.69 -23.66 133.4 -25.37 133.4 -27.44 L 133.4 -27.44 C 133.4 -29.03 132.87 -30.21 131.75 -30.98 C 130.63 -31.68 129.03 -32.04 126.97 -32.04 L 126.97 -32.04 L 122.9 -32.04 Z M 154.7 0 L 146.56 0 L 154.28 -38.47 L 162.37 -38.47 L 159.24 -22.66 L 159.42 -22.66 L 173.87 -38.47 L 182.72 -38.47 L 168.74 -22.66 L 177.35 0 L 168.92 0 L 162.78 -17.58 L 156.94 -11.27 L 154.7 0 Z M 199.66 0 L 191.63 0 L 194.35 -13.92 L 188.21 -38.47 L 196.59 -38.47 L 198.24 -29.21 C 198.53 -27.73 198.77 -26.37 199.01 -25.02 C 199.18 -23.66 199.42 -22.24 199.71 -20.71 L 199.71 -20.71 L 199.95 -20.71 C 200.72 -22.24 201.48 -23.72 202.25 -25.08 C 203.02 -26.43 203.79 -27.85 204.67 -29.32 L 204.67 -29.32 L 210.04 -38.47 L 218.71 -38.47 L 202.43 -13.92 L 199.66 0 Z M 228.86 -21.42 L 223.61 -21.42 L 224.85 -32.1 L 225.91 -39.53 L 233.88 -39.53 L 232.22 -32.1 L 228.86 -21.42 Z M 250.63 0.71 L 250.63 0.71 C 248.09 0.71 245.68 0.12 243.32 -1 C 240.9 -2.12 238.77 -3.95 236.88 -6.49 L 236.88 -6.49 L 242.67 -11.03 C 243.67 -9.56 244.97 -8.44 246.5 -7.55 C 247.98 -6.67 249.57 -6.2 251.22 -6.2 L 251.22 -6.2 C 252.87 -6.2 254.23 -6.61 255.23 -7.38 C 256.24 -8.14 256.77 -9.26 256.77 -10.62 L 256.77 -10.62 C 256.77 -11.62 256.35 -12.45 255.59 -13.16 C 254.76 -13.81 253.64 -14.51 252.28 -15.4 L 252.28 -15.4 L 248.63 -17.64 C 246.91 -18.76 245.5 -20.06 244.5 -21.54 C 243.43 -23.01 242.9 -24.9 242.9 -27.26 L 242.9 -27.26 C 242.9 -29.44 243.49 -31.45 244.73 -33.28 C 245.91 -35.05 247.5 -36.46 249.57 -37.58 C 251.63 -38.65 253.88 -39.18 256.41 -39.18 L 256.41 -39.18 C 258.71 -39.18 260.84 -38.65 262.9 -37.58 C 264.91 -36.52 266.62 -35.11 268.1 -33.34 L 268.1 -33.34 L 262.96 -28.56 C 261.96 -29.56 260.96 -30.44 259.84 -31.15 C 258.71 -31.8 257.48 -32.16 256.06 -32.16 L 256.06 -32.16 C 254.47 -32.16 253.29 -31.74 252.46 -30.98 C 251.58 -30.15 251.16 -29.15 251.16 -28.03 L 251.16 -28.03 C 251.16 -27.02 251.58 -26.26 252.46 -25.61 C 253.35 -24.96 254.53 -24.19 256 -23.25 L 256 -23.25 L 259.78 -20.95 C 261.61 -19.82 262.96 -18.59 263.85 -17.23 C 264.73 -15.81 265.15 -13.98 265.15 -11.8 L 265.15 -11.8 C 265.15 -9.5 264.56 -7.38 263.38 -5.49 C 262.14 -3.54 260.48 -2.06 258.3 -0.94 C 256.12 0.18 253.58 0.71 250.63 0.71 Z M 309.87 0 L 287.15 0 L 294.88 -38.47 L 302.96 -38.47 L 296.59 -6.79 L 311.17 -6.79 L 309.87 0 Z M 335.77 0.71 L 335.77 0.71 C 331.34 0.71 327.86 -0.71 325.27 -3.6 C 322.61 -6.49 321.31 -10.44 321.31 -15.58 L 321.31 -15.58 C 321.31 -18.94 321.84 -22.07 322.91 -24.96 C 323.91 -27.85 325.38 -30.33 327.21 -32.45 C 329.04 -34.57 331.11 -36.23 333.47 -37.41 C 335.77 -38.59 338.25 -39.18 340.84 -39.18 L 340.84 -39.18 C 343.79 -39.18 346.33 -38.53 348.51 -37.23 C 350.7 -35.93 352.35 -34.1 353.53 -31.68 C 354.71 -29.26 355.3 -26.31 355.3 -22.89 L 355.3 -22.89 C 355.3 -19.53 354.77 -16.4 353.76 -13.51 C 352.7 -10.62 351.29 -8.14 349.46 -6.02 C 347.63 -3.89 345.56 -2.24 343.2 -1.06 C 340.84 0.12 338.36 0.71 335.77 0.71 Z M 336.18 -6.25 L 336.18 -6.25 C 337.54 -6.25 338.9 -6.67 340.19 -7.49 C 341.49 -8.32 342.67 -9.5 343.67 -10.97 C 344.68 -12.45 345.5 -14.16 346.15 -16.11 C 346.74 -18.05 347.04 -20.12 347.04 -22.36 L 347.04 -22.36 C 347.04 -25.43 346.45 -27.85 345.39 -29.56 C 344.26 -31.27 342.61 -32.16 340.49 -32.16 L 340.49 -32.16 C 339.13 -32.16 337.77 -31.74 336.48 -30.92 C 335.18 -30.09 334 -28.97 333 -27.49 C 331.93 -26.02 331.11 -24.31 330.52 -22.36 C 329.87 -20.41 329.57 -18.35 329.57 -16.11 L 329.57 -16.11 C 329.57 -13.04 330.16 -10.62 331.28 -8.91 C 332.41 -7.14 334.06 -6.25 336.18 -6.25 Z M 378.37 0.71 L 378.37 0.71 C 373.59 0.71 369.87 -0.71 367.22 -3.54 C 364.5 -6.37 363.14 -10.33 363.14 -15.4 L 363.14 -15.4 C 363.14 -18.7 363.68 -21.83 364.74 -24.72 C 365.74 -27.61 367.22 -30.09 369.16 -32.27 C 371.05 -34.46 373.29 -36.11 375.83 -37.35 C 378.37 -38.59 381.2 -39.18 384.21 -39.18 L 384.21 -39.18 C 386.69 -39.18 388.81 -38.65 390.64 -37.58 C 392.41 -36.46 393.82 -34.99 394.95 -33.04 L 394.95 -33.04 L 389.46 -28.79 C 388.69 -29.91 387.92 -30.8 387.04 -31.33 C 386.15 -31.86 385.03 -32.16 383.79 -32.16 L 383.79 -32.16 C 381.43 -32.16 379.31 -31.39 377.48 -29.91 C 375.59 -28.38 374.12 -26.37 373.06 -23.95 C 371.99 -21.48 371.46 -18.82 371.46 -15.93 L 371.46 -15.93 C 371.46 -12.98 372.11 -10.62 373.41 -8.85 C 374.65 -7.08 376.77 -6.2 379.78 -6.2 L 379.78 -6.2 C 380.55 -6.2 381.32 -6.31 382.08 -6.55 C 382.85 -6.79 383.44 -7.08 383.97 -7.49 L 383.97 -7.49 L 385.62 -15.05 L 379.31 -15.05 L 380.55 -21.65 L 393.94 -21.65 L 390.4 -3.3 C 388.93 -2.18 387.16 -1.24 385.15 -0.47 C 383.09 0.3 380.79 0.71 378.37 0.71 Z M 408.63 0 L 400.49 0 L 408.22 -38.47 L 416.3 -38.47 L 408.63 0 Z M 433.18 0.71 L 433.18 0.71 C 430.64 0.71 428.22 0.12 425.86 -1 C 423.44 -2.12 421.32 -3.95 419.43 -6.49 L 419.43 -6.49 L 425.21 -11.03 C 426.22 -9.56 427.51 -8.44 429.05 -7.55 C 430.52 -6.67 432.12 -6.2 433.77 -6.2 L 433.77 -6.2 C 435.42 -6.2 436.78 -6.61 437.78 -7.38 C 438.78 -8.14 439.31 -9.26 439.31 -10.62 L 439.31 -10.62 C 439.31 -11.62 438.9 -12.45 438.13 -13.16 C 437.31 -13.81 436.19 -14.51 434.83 -15.4 L 434.83 -15.4 L 431.17 -17.64 C 429.46 -18.76 428.04 -20.06 427.04 -21.54 C 425.98 -23.01 425.45 -24.9 425.45 -27.26 L 425.45 -27.26 C 425.45 -29.44 426.04 -31.45 427.28 -33.28 C 428.46 -35.05 430.05 -36.46 432.12 -37.58 C 434.18 -38.65 436.42 -39.18 438.96 -39.18 L 438.96 -39.18 C 441.26 -39.18 443.38 -38.65 445.45 -37.58 C 447.46 -36.52 449.17 -35.11 450.64 -33.34 L 450.64 -33.34 L 445.51 -28.56 C 444.51 -29.56 443.5 -30.44 442.38 -31.15 C 441.26 -31.8 440.02 -32.16 438.61 -32.16 L 438.61 -32.16 C 437.01 -32.16 435.83 -31.74 435.01 -30.98 C 434.12 -30.15 433.71 -29.15 433.71 -28.03 L 433.71 -28.03 C 433.71 -27.02 434.12 -26.26 435.01 -25.61 C 435.89 -24.96 437.07 -24.19 438.55 -23.25 L 438.55 -23.25 L 442.32 -20.95 C 444.15 -19.82 445.51 -18.59 446.39 -17.23 C 447.28 -15.81 447.69 -13.98 447.69 -11.8 L 447.69 -11.8 C 447.69 -9.5 447.1 -7.38 445.92 -5.49 C 444.68 -3.54 443.03 -2.06 440.85 -0.94 C 438.66 0.18 436.13 0.71 433.18 0.71 Z M 470.17 0 L 462.09 0 L 468.34 -31.62 L 458.25 -31.62 L 459.55 -38.47 L 487.87 -38.47 L 486.51 -31.62 L 476.42 -31.62 L 470.17 0 Z M 497.43 0 L 489.29 0 L 497.02 -38.47 L 505.1 -38.47 L 497.43 0 Z M 525.87 0.71 L 525.87 0.71 C 522.92 0.71 520.32 0.06 518.14 -1.24 C 515.95 -2.48 514.24 -4.37 513.06 -6.79 C 511.82 -9.2 511.23 -12.04 511.23 -15.4 L 511.23 -15.4 C 511.23 -18.7 511.77 -21.83 512.83 -24.72 C 513.83 -27.61 515.31 -30.09 517.19 -32.27 C 519.02 -34.46 521.21 -36.11 523.68 -37.35 C 526.16 -38.59 528.82 -39.18 531.71 -39.18 L 531.71 -39.18 C 533.95 -39.18 535.96 -38.65 537.73 -37.58 C 539.44 -36.46 540.85 -34.99 541.97 -33.04 L 541.97 -33.04 L 536.43 -28.79 C 535.01 -31.03 533.3 -32.16 531.29 -32.16 L 531.29 -32.16 C 529.64 -32.16 528.11 -31.74 526.69 -30.86 C 525.28 -29.97 524.04 -28.73 522.98 -27.26 C 521.91 -25.72 521.09 -24.01 520.5 -22.07 C 519.85 -20.12 519.55 -18.05 519.55 -15.93 L 519.55 -15.93 C 519.55 -12.92 520.2 -10.56 521.44 -8.85 C 522.68 -7.14 524.75 -6.25 527.58 -6.25 L 527.58 -6.25 C 528.7 -6.25 529.88 -6.55 531 -7.08 C 532.12 -7.61 533.12 -8.32 534.13 -9.2 L 534.13 -9.2 L 537.49 -4.01 C 536.37 -2.95 534.78 -1.89 532.83 -0.89 C 530.82 0.18 528.52 0.71 525.87 0.71 Z M 558.38 0.71 L 558.38 0.71 C 555.84 0.71 553.42 0.12 551.06 -1 C 548.64 -2.12 546.52 -3.95 544.63 -6.49 L 544.63 -6.49 L 550.41 -11.03 C 551.41 -9.56 552.71 -8.44 554.25 -7.55 C 555.72 -6.67 557.31 -6.2 558.97 -6.2 L 558.97 -6.2 C 560.62 -6.2 561.97 -6.61 562.98 -7.38 C 563.98 -8.14 564.51 -9.26 564.51 -10.62 L 564.51 -10.62 C 564.51 -11.62 564.1 -12.45 563.33 -13.16 C 562.51 -13.81 561.38 -14.51 560.03 -15.4 L 560.03 -15.4 L 556.37 -17.64 C 554.66 -18.76 553.24 -20.06 552.24 -21.54 C 551.18 -23.01 550.65 -24.9 550.65 -27.26 L 550.65 -27.26 C 550.65 -29.44 551.24 -31.45 552.48 -33.28 C 553.66 -35.05 555.25 -36.46 557.31 -37.58 C 559.38 -38.65 561.62 -39.18 564.16 -39.18 L 564.16 -39.18 C 566.46 -39.18 568.58 -38.65 570.65 -37.58 C 572.65 -36.52 574.36 -35.11 575.84 -33.34 L 575.84 -33.34 L 570.71 -28.56 C 569.7 -29.56 568.7 -30.44 567.58 -31.15 C 566.46 -31.8 565.22 -32.16 563.8 -32.16 L 563.8 -32.16 C 562.21 -32.16 561.03 -31.74 560.2 -30.98 C 559.32 -30.15 558.91 -29.15 558.91 -28.03 L 558.91 -28.03 C 558.91 -27.02 559.32 -26.26 560.2 -25.61 C 561.09 -24.96 562.27 -24.19 563.74 -23.25 L 563.74 -23.25 L 567.52 -20.95 C 569.35 -19.82 570.71 -18.59 571.59 -17.23 C 572.48 -15.81 572.89 -13.98 572.89 -11.8 L 572.89 -11.8 C 572.89 -9.5 572.3 -7.38 571.12 -5.49 C 569.88 -3.54 568.23 -2.06 566.05 -0.94 C 563.86 0.18 561.33 0.71 558.38 0.71 Z" stroke-linecap="round" />
</g>
</g>
</g>
<g transform="matrix(1.9211538461538462 0 0 1.9211538461538462 628.8780961029285 717.2306294447408)" id="tagline-b9f3af05-a704-48b8-812a-57fcc0c7e6a4-logo"  >
<g style=""  paint-order="stroke"   >
		<g transform="matrix(1 0 0 1 0 -18.45120000000003)" id="tagline-b9f3af05-a704-48b8-812a-57fcc0c7e6a4-logo-path-0"  >
<path style="stroke: none; stroke-width: 0; stroke-dasharray: none; stroke-linecap: butt; stroke-dashoffset: 0; stroke-linejoin: miter; stroke-miterlimit: 4; fill: rgb(244,78,39); fill-rule: nonzero; opacity: 1;"  paint-order="stroke"  transform=" translate(-187.43499999999997, 9.77)" d="M 14.31 -17.53 L 6.38 -17.53 L 5.21 -10.84 L 12.29 -10.84 L 11.96 -8.88 L 4.87 -8.88 L 3.64 -2.02 L 11.59 -2.02 L 11.23 0 L 0.73 0 L 4.2 -19.54 L 14.67 -19.54 L 14.31 -17.53 Z M 38.78 -19.52 L 31.05 -9.74 L 35.31 0 L 32.42 0 L 29.09 -7.64 L 23.3 0 L 20.44 0 L 28.17 -9.77 L 23.91 -19.52 L 26.77 -19.52 L 30.1 -11.9 L 35.92 -19.52 L 38.78 -19.52 Z M 60.45 -13.8 L 60.45 -13.8 Q 60.03 -11.37 58.07 -9.76 Q 56.11 -8.15 52.72 -8.15 L 52.72 -8.15 L 48.97 -8.15 L 47.52 0 L 44.97 0 L 48.44 -19.52 L 54.74 -19.52 Q 57.65 -19.52 59.11 -18.27 Q 60.56 -17.02 60.56 -14.95 L 60.56 -14.95 Q 60.56 -14.59 60.45 -13.8 Z M 49.34 -10.16 L 53.09 -10.16 Q 55.19 -10.16 56.36 -11.13 Q 57.54 -12.1 57.85 -13.8 L 57.85 -13.8 Q 57.93 -14.31 57.93 -14.73 L 57.93 -14.73 Q 57.93 -17.5 54.38 -17.5 L 54.38 -17.5 L 50.62 -17.5 L 49.34 -10.16 Z M 81 -17.53 L 73.08 -17.53 L 71.9 -10.84 L 78.99 -10.84 L 78.65 -8.88 L 71.57 -8.88 L 70.34 -2.02 L 78.29 -2.02 L 77.92 0 L 67.42 0 L 70.9 -19.54 L 81.37 -19.54 L 81 -17.53 Z M 91.5 -19.52 L 97.58 -19.52 Q 101.75 -19.52 104.06 -17.5 Q 106.37 -15.48 106.37 -11.9 L 106.37 -11.9 Q 106.37 -10.78 106.18 -9.72 L 106.18 -9.72 Q 105.64 -6.72 104.01 -4.52 Q 102.37 -2.32 99.83 -1.16 Q 97.3 0 94.11 0 L 94.11 0 L 88.03 0 L 91.5 -19.52 Z M 90.94 -1.96 L 94.47 -1.96 Q 98.22 -1.96 100.58 -4.02 Q 102.93 -6.08 103.57 -9.72 L 103.57 -9.72 Q 103.74 -10.72 103.74 -11.62 L 103.74 -11.62 Q 103.74 -14.39 102.09 -15.92 Q 100.44 -17.44 97.22 -17.44 L 97.22 -17.44 L 93.69 -17.44 L 90.94 -1.96 Z M 117.54 -19.52 L 120.09 -19.52 L 116.62 0 L 114.07 0 L 117.54 -19.52 Z M 129.47 -19.52 L 142.66 -19.52 L 142.3 -17.53 L 136.98 -17.53 L 133.9 0 L 131.35 0 L 134.43 -17.53 L 129.11 -17.53 L 129.47 -19.52 Z M 162.18 -17.53 L 154.25 -17.53 L 153.08 -10.84 L 160.16 -10.84 L 159.82 -8.88 L 152.74 -8.88 L 151.51 -2.02 L 159.46 -2.02 L 159.1 0 L 148.6 0 L 152.07 -19.54 L 162.54 -19.54 L 162.18 -17.53 Z M 172.68 -19.52 L 178.75 -19.52 Q 182.92 -19.52 185.23 -17.5 Q 187.54 -15.48 187.54 -11.9 L 187.54 -11.9 Q 187.54 -10.78 187.35 -9.72 L 187.35 -9.72 Q 186.82 -6.72 185.18 -4.52 Q 183.54 -2.32 181.01 -1.16 Q 178.47 0 175.28 0 L 175.28 0 L 169.2 0 L 172.68 -19.52 Z M 172.12 -1.96 L 175.64 -1.96 Q 179.4 -1.96 181.75 -4.02 Q 184.1 -6.08 184.74 -9.72 L 184.74 -9.72 Q 184.91 -10.72 184.91 -11.62 L 184.91 -11.62 Q 184.91 -14.39 183.26 -15.92 Q 181.61 -17.44 178.39 -17.44 L 178.39 -17.44 L 174.86 -17.44 L 172.12 -1.96 Z M 213.3 -19.52 L 219.38 -19.52 Q 223.55 -19.52 225.86 -17.5 Q 228.17 -15.48 228.17 -11.9 L 228.17 -11.9 Q 228.17 -10.78 227.98 -9.72 L 227.98 -9.72 Q 227.44 -6.72 225.81 -4.52 Q 224.17 -2.32 221.63 -1.16 Q 219.1 0 215.91 0 L 215.91 0 L 209.83 0 L 213.3 -19.52 Z M 212.74 -1.96 L 216.27 -1.96 Q 220.02 -1.96 222.38 -4.02 Q 224.73 -6.08 225.37 -9.72 L 225.37 -9.72 Q 225.54 -10.72 225.54 -11.62 L 225.54 -11.62 Q 225.54 -14.39 223.89 -15.92 Q 222.24 -17.44 219.02 -17.44 L 219.02 -17.44 L 215.49 -17.44 L 212.74 -1.96 Z M 249.45 -17.53 L 241.53 -17.53 L 240.35 -10.84 L 247.44 -10.84 L 247.1 -8.88 L 240.02 -8.88 L 238.78 -2.02 L 246.74 -2.02 L 246.37 0 L 235.87 0 L 239.34 -19.54 L 249.82 -19.54 L 249.45 -17.53 Z M 262.5 -19.52 L 259.39 -1.96 L 266.22 -1.96 L 265.86 0 L 256.48 0 L 259.95 -19.52 L 262.5 -19.52 Z M 278.29 -19.52 L 280.84 -19.52 L 277.37 0 L 274.82 0 L 278.29 -19.52 Z M 289.86 -19.52 L 292.6 -19.52 L 295.71 -2.74 L 304.81 -19.52 L 307.55 -19.52 L 296.72 0 L 293.78 0 L 289.86 -19.52 Z M 326.7 -17.53 L 318.78 -17.53 L 317.6 -10.84 L 324.69 -10.84 L 324.35 -8.88 L 317.27 -8.88 L 316.04 -2.02 L 323.99 -2.02 L 323.62 0 L 313.12 0 L 316.6 -19.54 L 327.07 -19.54 L 326.7 -17.53 Z M 337.2 -19.52 L 343.48 -19.52 Q 346.39 -19.52 347.87 -18.26 Q 349.36 -17 349.36 -14.9 L 349.36 -14.9 Q 349.36 -14.56 349.24 -13.78 L 349.24 -13.78 Q 348.88 -11.76 347.45 -10.22 Q 346.02 -8.68 343.62 -8.18 L 343.62 -8.18 L 347.06 0 L 344.01 0 L 340.76 -7.98 L 337.71 -7.98 L 336.28 0 L 333.73 0 L 337.2 -19.52 Z M 346.61 -13.78 L 346.61 -13.78 Q 346.7 -14.28 346.7 -14.7 L 346.7 -14.7 Q 346.7 -16.04 345.81 -16.77 Q 344.93 -17.5 343.11 -17.5 L 343.11 -17.5 L 339.39 -17.5 L 338.07 -10.02 L 341.82 -10.02 Q 343.9 -10.02 345.1 -11.05 Q 346.3 -12.07 346.61 -13.78 Z M 371.25 -19.52 L 374.14 -19.52 L 365.62 -7.36 L 364.31 0 L 361.76 0 L 363.08 -7.36 L 358.82 -19.52 L 361.68 -19.52 L 364.73 -9.69 L 371.25 -19.52 Z" stroke-linecap="round" />
</g>
		<g transform="matrix(1 0 0 1 7.139999999999986 18.251199999999926)" id="tagline-b9f3af05-a704-48b8-812a-57fcc0c7e6a4-logo-path-1"  >
<path style="stroke: none; stroke-width: 0; stroke-dasharray: none; stroke-linecap: butt; stroke-dashoffset: 0; stroke-linejoin: miter; stroke-miterlimit: 4; fill: rgb(244,78,39); fill-rule: nonzero; opacity: 1;"  paint-order="stroke"  transform=" translate(-153.37, 9.77)" d="M 2.63 -19.52 L 5.38 -19.52 L 8.48 -2.74 L 17.58 -19.52 L 20.33 -19.52 L 9.49 0 L 6.55 0 L 2.63 -19.52 Z M 39.48 -17.53 L 31.56 -17.53 L 30.38 -10.84 L 37.46 -10.84 L 37.13 -8.88 L 30.04 -8.88 L 28.81 -2.02 L 36.76 -2.02 L 36.4 0 L 25.9 0 L 29.37 -19.54 L 39.84 -19.54 L 39.48 -17.53 Z M 48.78 -19.52 L 61.96 -19.52 L 61.6 -17.53 L 56.28 -17.53 L 53.2 0 L 50.65 0 L 53.73 -17.53 L 48.41 -17.53 L 48.78 -19.52 Z M 81.48 -17.53 L 73.56 -17.53 L 72.38 -10.84 L 79.46 -10.84 L 79.13 -8.88 L 72.04 -8.88 L 70.81 -2.02 L 78.76 -2.02 L 78.4 0 L 67.9 0 L 71.37 -19.54 L 81.84 -19.54 L 81.48 -17.53 Z M 91.98 -19.52 L 98.25 -19.52 Q 101.16 -19.52 102.65 -18.26 Q 104.13 -17 104.13 -14.9 L 104.13 -14.9 Q 104.13 -14.56 104.02 -13.78 L 104.02 -13.78 Q 103.66 -11.76 102.23 -10.22 Q 100.8 -8.68 98.39 -8.18 L 98.39 -8.18 L 101.84 0 L 98.78 0 L 95.54 -7.98 L 92.48 -7.98 L 91.06 0 L 88.51 0 L 91.98 -19.52 Z M 101.39 -13.78 L 101.39 -13.78 Q 101.47 -14.28 101.47 -14.7 L 101.47 -14.7 Q 101.47 -16.04 100.59 -16.77 Q 99.71 -17.5 97.89 -17.5 L 97.89 -17.5 L 94.16 -17.5 L 92.85 -10.02 L 96.6 -10.02 Q 98.67 -10.02 99.88 -11.05 Q 101.08 -12.07 101.39 -13.78 Z M 124.88 0 L 124.1 -4.34 L 115.56 -4.34 L 113.23 0 L 110.54 0 L 121.02 -19.4 L 123.96 -19.4 L 127.57 0 L 124.88 0 Z M 116.62 -6.33 L 123.73 -6.33 L 121.94 -16.3 L 116.62 -6.33 Z M 155.71 -19.54 L 152.24 0 L 149.69 0 L 142.21 -15.54 L 139.44 0 L 136.89 0 L 140.36 -19.54 L 142.91 -19.54 L 150.42 -4.03 L 153.16 -19.54 L 155.71 -19.54 Z M 186.31 0.2 L 186.31 0.2 Q 183.88 0.2 182.03 -0.83 Q 180.18 -1.85 179.16 -3.7 Q 178.14 -5.54 178.14 -7.92 L 178.14 -7.92 Q 178.14 -11.23 179.63 -13.93 Q 181.13 -16.63 183.76 -18.19 Q 186.4 -19.74 189.64 -19.74 L 189.64 -19.74 Q 192.11 -19.74 193.97 -18.72 Q 195.83 -17.7 196.84 -15.86 Q 197.85 -14.03 197.85 -11.65 L 197.85 -11.65 Q 197.85 -8.32 196.35 -5.61 Q 194.85 -2.91 192.22 -1.36 Q 189.59 0.2 186.31 0.2 Z M 186.68 -2.1 L 186.68 -2.1 Q 189.14 -2.1 191.09 -3.37 Q 193.03 -4.65 194.12 -6.8 Q 195.22 -8.96 195.22 -11.48 L 195.22 -11.48 Q 195.22 -14.25 193.62 -15.85 Q 192.02 -17.44 189.28 -17.44 L 189.28 -17.44 Q 186.82 -17.44 184.87 -16.17 Q 182.92 -14.9 181.85 -12.75 Q 180.77 -10.61 180.77 -8.09 L 180.77 -8.09 Q 180.77 -5.32 182.35 -3.71 Q 183.93 -2.1 186.68 -2.1 Z M 230.89 -19.52 L 233.63 -19.52 L 224.53 0 L 221.68 0 L 219.91 -15.71 L 212.46 0 L 209.61 0.03 L 207.59 -19.52 L 210.34 -19.52 L 211.68 -3.02 L 219.27 -19.52 L 222.15 -19.52 L 223.72 -3.08 L 230.89 -19.52 Z M 258.05 -19.54 L 254.58 0 L 252.03 0 L 244.55 -15.54 L 241.78 0 L 239.23 0 L 242.7 -19.54 L 245.25 -19.54 L 252.76 -4.03 L 255.5 -19.54 L 258.05 -19.54 Z M 278.74 -17.53 L 270.82 -17.53 L 269.64 -10.84 L 276.72 -10.84 L 276.39 -8.88 L 269.3 -8.88 L 268.07 -2.02 L 276.02 -2.02 L 275.66 0 L 265.16 0 L 268.63 -19.54 L 279.1 -19.54 L 278.74 -17.53 Z M 289.24 -19.52 L 295.32 -19.52 Q 299.49 -19.52 301.8 -17.5 Q 304.11 -15.48 304.11 -11.9 L 304.11 -11.9 Q 304.11 -10.78 303.91 -9.72 L 303.91 -9.72 Q 303.38 -6.72 301.74 -4.52 Q 300.1 -2.32 297.57 -1.16 Q 295.04 0 291.84 0 L 291.84 0 L 285.77 0 L 289.24 -19.52 Z M 288.68 -1.96 L 292.21 -1.96 Q 295.96 -1.96 298.31 -4.02 Q 300.66 -6.08 301.31 -9.72 L 301.31 -9.72 Q 301.48 -10.72 301.48 -11.62 L 301.48 -11.62 Q 301.48 -14.39 299.82 -15.92 Q 298.17 -17.44 294.95 -17.44 L 294.95 -17.44 L 291.42 -17.44 L 288.68 -1.96 Z" stroke-linecap="round" />
</g>
</g>
</g>
</svg>